<?xml version="1.0" encoding="UTF-8"?>
<svg version="1.1" xmlns="http://www.w3.org/2000/svg" width="96" height="96">
<path d="M0 0 C10.88210519 7.92601549 18.32349057 18.29547202 21.42578125 31.42578125 C22.90846993 45.81408023 21.16377634 58.42208795 12.265625 70.1796875 C6.64639137 77.0396861 0.78535891 82.05975662 -7.57421875 85.42578125 C-10.41015625 85.5859375 -10.41015625 85.5859375 -12.57421875 85.42578125 C-15.43071973 79.31217245 -17.80115733 73.17388736 -19.82421875 66.73828125 C-20.22640625 65.5152832 -20.22640625 65.5152832 -20.63671875 64.26757812 C-22.01539109 59.91702282 -23.1589924 56.04056126 -22.57421875 51.42578125 C-20.13671875 49.17578125 -20.13671875 49.17578125 -17.57421875 47.42578125 C-15.83116931 43.93968237 -16.00269347 40.22938054 -16.57421875 36.42578125 C-19.097899 32.75497361 -20.74457758 31.66713141 -25.01171875 30.42578125 C-29.10516111 30.42578125 -31.16487126 31.20574103 -34.57421875 33.42578125 C-37.23960906 37.42386671 -37.41571579 40.72329778 -36.57421875 45.42578125 C-34.30294541 48.44987489 -34.30294541 48.44987489 -31.57421875 50.42578125 C-31.24421875 50.75578125 -30.91421875 51.08578125 -30.57421875 51.42578125 C-30.95278481 59.06019677 -33.08497454 65.73656545 -35.57421875 72.92578125 C-35.94289062 74.02148438 -36.3115625 75.1171875 -36.69140625 76.24609375 C-39.41949601 84.27105851 -39.41949601 84.27105851 -40.57421875 85.42578125 C-49.73052289 85.42578125 -55.8399192 80.13952874 -62.32421875 74.11328125 C-72.26558392 63.60919729 -75.11739152 52.02247475 -75.06420898 37.96801758 C-74.631296 23.80103938 -68.33324169 13.71441938 -58.26171875 4.17578125 C-42.18363363 -9.5741314 -17.94990533 -10.97695273 0 0 Z " fill="#4BAE4F" transform="translate(74.57421875,8.57421875)"/>
</svg>
